<svg viewBox="0 0 32 32" fill="none" xmlns="http://www.w3.org/2000/svg">
<path d="M24.84 8.60999C24.3292 8.099 23.7228 7.69364 23.0554 7.41708C22.3879 7.14052 21.6725 6.99817 20.95 6.99817C20.2275 6.99817 19.5121 7.14052 18.8446 7.41708C18.1772 7.69364 17.5708 8.099 17.06 8.60999L16 9.66999L14.94 8.60999C13.9083 7.5783 12.509 6.9987 11.05 6.9987C9.59096 6.9987 8.19169 7.5783 7.16 8.60999C6.1283 9.64169 5.54871 11.041 5.54871 12.5C5.54871 13.959 6.1283 15.3583 7.16 16.39L8.22 17.45L16 25.23L23.78 17.45L24.84 16.39C25.351 15.8792 25.7563 15.2728 26.0329 14.6053C26.3095 13.9379 26.4518 13.2225 26.4518 12.5C26.4518 11.7775 26.3095 11.0621 26.0329 10.3946C25.7563 9.72718 25.351 9.12075 24.84 8.60999Z" fill="black" fill-opacity="0.1" stroke="current" stroke-linecap="round"/>
</svg>
