<svg  viewBox="0 0 28 28" fill="none" xmlns="http://www.w3.org/2000/svg">
<path d="M23.242 22.2369L17.8729 16.8678C19.163 15.3189 19.8064 13.3323 19.6691 11.3211C19.5318 9.31001 18.6244 7.42923 17.1358 6.07006C15.6471 4.71088 13.6917 3.97796 11.6764 4.02375C9.66114 4.06955 7.74108 4.89054 6.31569 6.31593C4.89029 7.74133 4.0693 9.66138 4.02351 11.6767C3.97771 13.692 4.71064 15.6473 6.06981 17.136C7.42899 18.6247 9.30977 19.532 11.3209 19.6693C13.332 19.8066 15.3187 19.1633 16.8676 17.8731L22.2366 23.2422L23.242 22.2369ZM5.46852 11.8672C5.46852 10.6017 5.84378 9.36464 6.54685 8.31242C7.24992 7.2602 8.24922 6.4401 9.41838 5.95582C10.5875 5.47154 11.8741 5.34482 13.1152 5.59171C14.3564 5.83859 15.4965 6.44799 16.3913 7.34282C17.2862 8.23766 17.8956 9.37775 18.1425 10.6189C18.3893 11.8601 18.2626 13.1466 17.7783 14.3158C17.2941 15.4849 16.474 16.4842 15.4217 17.1873C14.3695 17.8904 13.1325 18.2656 11.867 18.2656C10.1706 18.2638 8.54419 17.589 7.34466 16.3895C6.14513 15.19 5.4704 13.5636 5.46852 11.8672Z" fill="current"/>
</svg>
