<svg viewBox="0 0 70 100" fill="none" xmlns="http://www.w3.org/2000/svg">
<path d="M68 50C68 76.5097 57.1571 98 35 98C12.8429 98 2 76.5097 2 50C2 23.4903 12.8429 2 35 2C57.1571 2 68 23.4903 68 50Z" stroke="current" stroke-width="4"/>
<path d="M35.0527 50.8398V51.5264C34.1374 51.6748 33.321 52.1634 32.6035 52.9922C32.084 53.6107 31.3109 55.0641 30.2842 57.3525L21.6191 76.5752H21.0068L12.3789 56.5732C11.3398 54.1611 10.641 52.7448 10.2822 52.3242C9.93587 51.9036 9.27409 51.6377 8.29688 51.5264V50.8398H20.3574V51.5264H19.9492C18.8607 51.5264 18.1185 51.6624 17.7227 51.9346C17.4382 52.1201 17.2959 52.3923 17.2959 52.751C17.2959 52.9736 17.3454 53.2396 17.4443 53.5488C17.5433 53.8457 17.8773 54.6559 18.4463 55.9795L23.8086 68.5039L28.7812 57.3525C29.375 56.0042 29.7399 55.1012 29.876 54.6436C30.012 54.1859 30.0801 53.7962 30.0801 53.4746C30.0801 53.1035 29.9811 52.7757 29.7832 52.4912C29.5853 52.2067 29.2946 51.9902 28.9111 51.8418C28.3792 51.6315 27.6742 51.5264 26.7959 51.5264V50.8398H35.0527Z" fill="current"/>
<path d="M59.0156 60.8398V61.5264C58.1868 61.6377 57.5498 61.8789 57.1045 62.25C56.486 62.7695 55.5088 64.1859 54.1729 66.499L48.7178 75.6094V81.6953C48.7178 82.9941 48.7858 83.8044 48.9219 84.126C49.0579 84.4352 49.3239 84.7135 49.7197 84.9609C50.1279 85.196 50.666 85.3135 51.334 85.3135H52.7441V86H38.624V85.3135H39.9414C40.6836 85.3135 41.2712 85.1836 41.7041 84.9238C42.0257 84.7507 42.2793 84.4538 42.4648 84.0332C42.6009 83.7363 42.6689 82.957 42.6689 81.6953V76.6484L36.75 65.8682C35.5749 63.7406 34.7461 62.4912 34.2637 62.1201C33.7812 61.7367 33.138 61.5387 32.334 61.5264V60.8398H44.3945V61.5264H43.8564C43.1266 61.5264 42.6133 61.6315 42.3164 61.8418C42.0319 62.0521 41.8896 62.2747 41.8896 62.5098C41.8896 62.9551 42.3844 64.0745 43.374 65.8682L47.9199 74.1992L52.4473 66.6104C53.5729 64.7549 54.1357 63.5241 54.1357 62.918C54.1357 62.584 53.9749 62.3057 53.6533 62.083C53.2327 61.7738 52.4596 61.5882 51.334 61.5264V60.8398H59.0156Z" fill="current"/>
<path d="M53.666 19.8398V20.5264C53.196 20.5635 52.8001 20.6934 52.4785 20.916C52.1569 21.1387 51.8724 21.4788 51.625 21.9365C51.5508 22.085 51.1611 23.0436 50.4561 24.8125L42.5703 45.5752H41.8467L35.6123 29.3584L28.7471 45.5752H28.0605L19.7852 25.0352C18.944 22.9694 18.3564 21.7201 18.0225 21.2871C17.6885 20.8542 17.1257 20.6006 16.334 20.5264V19.8398H27.2441V20.5264C26.3659 20.5511 25.7783 20.6872 25.4814 20.9346C25.1969 21.1696 25.0547 21.4665 25.0547 21.8252C25.0547 22.2952 25.3577 23.291 25.9639 24.8125L30.8994 37.0215L34.8516 27.4844L33.8125 24.8125C33.2435 23.3529 32.8044 22.3818 32.4951 21.8994C32.1859 21.4046 31.8271 21.0521 31.4189 20.8418C31.0231 20.6315 30.4355 20.5264 29.6562 20.5264V19.8398H41.8467V20.5264C40.9932 20.5387 40.3809 20.6068 40.0098 20.7305C39.75 20.8171 39.5459 20.9655 39.3975 21.1758C39.249 21.3737 39.1748 21.6025 39.1748 21.8623C39.1748 22.1468 39.4531 23.0189 40.0098 24.4785L44.5928 36.3906L48.6934 25.6104C49.1263 24.4971 49.3923 23.7363 49.4912 23.3281C49.5902 22.9199 49.6396 22.5426 49.6396 22.1963C49.6396 21.6891 49.4665 21.2933 49.1201 21.0088C48.7738 20.7119 48.112 20.5511 47.1348 20.5264V19.8398H53.666Z" fill="current"/>
</svg>
